HIERARCHY
ROOT Hips
{
  OFFSET 267.745 86.9975 -272.335
  CHANNELS 6 Xposition Yposition Zposition Zrotation Xrotation Yrotation
  JOINT LeftUpLeg
  {
    OFFSET 8.64259 1.95398 -2.38835
    CHANNELS 3 Zrotation Xrotation Yrotation
    JOINT LeftLeg
    {
      OFFSET 43.7702 0 0
      CHANNELS 3 Zrotation Xrotation Yrotation
      JOINT LeftFoot
      {
        OFFSET 40.6238 0 0
        CHANNELS 3 Zrotation Xrotation Yrotation
        JOINT LeftToeBase
        {
          OFFSET 12.7242 0 0
          CHANNELS 3 Zrotation Xrotation Yrotation
          End Site
          {
            OFFSET 0 0 0
          }
        }
      }
    }
  }
  JOINT RightUpLeg
  {
    OFFSET -8.2249 1.95398 -2.59336
    CHANNELS 3 Zrotation Xrotation Yrotation
    JOINT RightLeg
    {
      OFFSET 43.5653 0 0
      CHANNELS 3 Zrotation Xrotation Yrotation
      JOINT RightFoot
      {
        OFFSET 40.6238 0 0
        CHANNELS 3 Zrotation Xrotation Yrotation
        JOINT RightToeBase
        {
          OFFSET 12.7242 0 0
          CHANNELS 3 Zrotation Xrotation Yrotation
          End Site
          {
            OFFSET 0 0 0
          }
        }
      }
    }
  }
  JOINT Spine
  {
    OFFSET 0.165834 0.87714 6.61349
    CHANNELS 3 Zrotation Xrotation Yrotation
    JOINT Spine1
    {
      OFFSET 7.38963 1.71661e-005 0
      CHANNELS 3 Zrotation Xrotation Yrotation
      JOINT Spine2
      {
        OFFSET 11.9445 1.14441e-005 0
        CHANNELS 3 Zrotation Xrotation Yrotation
        JOINT Spine3
        {
          OFFSET 14.7254 4.19617e-005 0
          CHANNELS 3 Zrotation Xrotation Yrotation
          JOINT Spine4
          {
            OFFSET 10.9679 0 0
            CHANNELS 3 Zrotation Xrotation Yrotation
            JOINT RightShoulder
            {
              OFFSET 2.46616 -1.6653 3.69651
              CHANNELS 3 Zrotation Xrotation Yrotation
              JOINT RightArm
              {
                OFFSET 13.0012 0 0
                CHANNELS 3 Zrotation Xrotation Yrotation
                JOINT RightForeArm
                {
                  OFFSET 28.7848 1.52588e-005 0
                  CHANNELS 3 Zrotation Xrotation Yrotation
                  JOINT RightHand
                  {
                    OFFSET 26.5688 1.52588e-005 0
                    CHANNELS 3 Zrotation Xrotation Yrotation
                    End Site
                    {
                      OFFSET 0 0 0
                    }
                  }
                }
              }
            }
            JOINT LeftShoulder
            {
              OFFSET 2.38034 -1.29275 -3.7523
              CHANNELS 3 Zrotation Xrotation Yrotation
              JOINT LeftArm
              {
                OFFSET 16.3182 6.10352e-005 0
                CHANNELS 3 Zrotation Xrotation Yrotation
                JOINT LeftForeArm
                {
                  OFFSET 27.0901 0 0
                  CHANNELS 3 Zrotation Xrotation Yrotation
                  JOINT LeftHand
                  {
                    OFFSET 24.5451 1.52588e-005 0
                    CHANNELS 3 Zrotation Xrotation Yrotation
                    End Site
                    {
                      OFFSET 0 0 0
                    }
                  }
                }
              }
            }
            JOINT Neck
            {
              OFFSET 5.0226 -0.0266342 0
              CHANNELS 3 Zrotation Xrotation Yrotation
              JOINT Head
              {
                OFFSET 6.69364 2.86102e-005 0
                CHANNELS 3 Zrotation Xrotation Yrotation
                End Site
                {
                  OFFSET 0 0 0
                }
              }
            }
          }
        }
      }
    }
  }
}
MOTION
Frames:	7
Frame Time:	0.0416667
-148.093 88.0149 156.731 -87.59 -38.8955 -80.2717 -177.59 40.7432 94.3449 -20.8683 9.81028 -0.395941 37.1994 -13.6978 0.0161504 47.9389 -2.4991 -7.43801 177.422 -18.3756 88.1373 -73.9671 -21.7705 -4.85601 41.4675 13.2309 12.1156 38.8309 -2.54064 4.24065 1.33486 8.65046 -90.7605 9.58745 2.31825 -1.68739 -2.08272 2.24177 -1.78781 -24.6312 2.71817 -0.912334 -4.6185 2.71817 -0.91234 101.742 -47.9385 -82.8443 17.2871 -23.1131 -3.3314 -4.53457 7.03558 -71.019 -7.99488 0.121007 -7.32374 -86.3344 -51.8575 84.2586 -25.8523 17.4111 26.4719 -6.17304 34.2565 -17.1699 7.24113 -0.638239 -10.7747 -1.62342 -0.466424 -9.87677 -14.6175 -0.206298 10.7649 
-166.208 85.1629 175.549 -93.0555 -43.8306 -89.9441 -172.251 34.1457 82.275 -46.4984 19.9845 -2.962 55.8547 4.55275 30.3394 40.319 -1.21089 -5.17792 175.978 -3.86534 82.7099 -114.375 -20.306 -3.52334 39.2959 12.8243 3.21918 41.3353 -3.09462 0.331967 0.485677 8.85311 -89.9588 9.16782 0.987121 0.0111995 -2.50276 0.986665 -0.0322744 -25.0407 0.938125 0.307389 -5.02807 0.938137 0.307378 102.863 -52.3155 -81.1115 24.6675 -11.3301 6.3896 0.686437 3.36015 -53.7158 -12.1088 -0.0269131 -5.09579 -83.8375 -54.2844 88.2071 -17.2577 17.9521 11.9496 -1.73559 28.2773 -22.3222 13.4527 -0.649432 -8.38954 -2.11102 0.732763 -11.7764 -13.5117 1.20121 11.5991 
-182.792 83.2403 192.417 -95.1522 -51.1181 -97.9679 -175.089 23.1329 76.2131 -61.3075 20.9544 -1.31383 62.7135 9.64426 26.1667 57.6172 -2.9016 2.72853 -174.475 24.3322 74.7466 -128.064 -24.4589 -2.5444 38.4744 14.6642 11.5956 35.2361 -1.75293 5.99194 -1.34736 8.96009 -89.0423 8.96859 -2.26061 2.05047 -2.70198 -2.16818 2.14797 -25.249 -2.77226 1.276 -5.23634 -2.77224 1.27601 96.0224 -56.8541 -90.995 24.2506 -1.38031 6.35534 6.77846 6.71788 -18.1738 -14.8213 -0.320598 -2.44118 -77.295 -54.5602 97.685 -9.1602 7.87522 -11.9318 6.47912 22.4341 -29.2008 18.9624 -0.624516 -7.15756 -9.60267 2.52881 -17.5487 -1.54417 4.06464 23.0226 
-200.705 85.9034 211.11 -103.126 -58.1237 -100.69 -173.438 0.410075 89.6447 -54.7433 26.4659 1.86001 61.2134 3.83511 11.0932 59.9518 -3.65504 -1.5498 -179.051 39.9451 81.8536 -103.955 -22.1682 -2.88366 46.0583 10.2062 5.88416 39.7302 -2.74641 4.76081 -2.91163 9.24221 -89.3628 8.44782 -5.52893 1.59498 -3.21366 -5.45334 1.8373 -25.8374 -5.75252 -0.14532 -5.82479 -5.7525 -0.145308 88.4306 -55.126 -102.205 25.4336 4.08426 15.6508 2.9457 -11.3944 -4.92969 -10.2888 -0.477147 0.0547304 -73.1263 -45.6248 104.414 -15.2206 1.42903 -20.4507 15.9846 9.27051 -54.0559 18.9719 -0.955496 -8.9777 -21.4909 4.66689 -18.2029 16.5842 8.73829 26.8755 
-218.525 89.5241 230.415 -107.502 -67.2874 -105.842 -176.873 -13.3907 95.2496 -46.4761 25.2967 8.42094 46.0302 -8.31743 0.865967 56.5516 -2.60154 4.2814 174.777 37.6534 77.3654 -56.6183 -9.36835 -0.870083 50.7084 9.31894 13.8144 38.0985 -2.38224 3.0635 -4.61179 9.23884 -89.3977 8.47135 -8.9371 1.74699 -3.1703 -8.85153 2.14158 -25.9538 -9.04537 -1.04235 -5.94112 -9.04537 -1.04235 83.0485 -50.1368 -111.575 25.7213 9.62201 16.1626 3.54946 -15.2456 -0.336808 -10.9901 0.276567 -8.37136 -70.8985 -33.1709 109.981 -18.9247 -2.69903 -20.2157 23.6164 -4.36426 -80.1533 9.07458 -0.876287 -12.0599 -29.901 7.31714 -17.366 29.3054 12.617 24.4805 
-235.582 88.4531 249.199 -98.7279 -65.1983 -106.797 176.058 -11.1037 83.4078 -63.3795 9.32333 5.49439 48.6443 -4.63954 3.06738 50.1312 -1.87785 7.11862 177.184 35.6814 69.3196 -16.2944 -10.3023 -0.442105 32.6031 17.5943 23.276 67.495 -7.73896 7.24385 -4.88676 9.22377 -88.7288 8.55755 -9.18915 3.09569 -3.08535 -9.04401 3.49988 -25.8834 -9.69093 0.165747 -5.87071 -9.69095 0.165721 81.5237 -43.208 -116.647 29.651 13.2943 2.96521 2.35932 -12.8841 0.00129454 -11.4188 0.769999 -13.5122 -68.9002 -26.9229 115.221 -20.8088 -19.9929 -16.7608 20.449 -2.30163 -91.3901 17.6456 -0.336212 -5.7619 -13.3565 7.43233 -22.5205 18.0683 12.849 24.6666 
-249.878 81.9902 268.196 -94.8586 -44.8065 -138.939 -173.766 -5.44259 45.5713 -89.142 3.91926 -7.12628 46.8349 -1.04387 15.7026 50.1408 -2.15929 3.21049 -159.041 53.8862 32.3327 -46.5369 -33.3769 -7.86284 40.4239 15.8234 21.8009 54.5546 -4.58504 9.813 -4.56213 9.53611 -84.4523 7.88686 -6.69735 11.2951 -3.81957 -6.19764 11.5746 -26.2206 -9.76756 8.78354 -6.208 -9.76755 8.78353 83.1035 -36.1267 -117.208 34.0689 11.3611 -16.4124 1.56717 -11.1711 0.00101776 -9.23367 0.425412 -11.0844 -68.795 -23.4588 116.401 -29.2096 -37.2281 -17.9523 18.4045 4.90771 -70.3292 14.3701 -0.828376 -9.38725 40.5766 -7.28767 -33.6055 -31.6577 3.18547 29.2137 
